<svg width="120" height="45" viewBox="0 0 120 45" fill="none" xmlns="http://www.w3.org/2000/svg">
<path d="M39.3302 34.5319L38.5969 38.0511L28.2957 38.4249L22.15 37.803L22.6734 19.3344L37.6888 19.1164L39.3302 34.5319ZM32.6965 32.9435L32.2429 24.6278L28.367 24.4412L28.1922 33.0994L32.6965 32.9435Z" fill="white"/>
<path d="M48.0925 19.0843L52.4228 26.4971L56.6826 19.0843L62.3746 19.2715L63.1776 38.2384L56.6481 38.6423L56.1945 28.5209L54.4481 32.0086L50.6772 32.258L48.7216 28.6138L48.6519 38.5487L42.0871 38.5179L42.5063 19.7069L48.0925 19.0843Z" fill="white"/>
<path d="M84.3005 32.4145V32.6626L80.2499 38.5801L66.7364 38.5493L66.3525 19.6754L66.5273 19.4888L74.9779 19.0213L79.9365 19.0835L83.0093 23.7243V23.9108L80.3902 28.4272L84.3005 32.4145ZM75.7457 23.6006L72.6376 23.5698V26.9017L75.8154 26.8088L75.7457 23.6006ZM76.479 30.7633H72.9526V34.5005L76.5488 34.3139L76.479 30.7633Z" fill="white"/>
<path d="M102.875 38.4878L96.59 38.7366L96.2406 34.8743L91.2474 35.2482L91.0727 38.5808L85.0673 38.4878L85.9754 27.3385L90.3402 19.2722L96.4858 19.0542L101.549 26.4356L102.875 38.4878ZM95.7517 30.3587L95.5072 27.8367L93.6214 24.2547L91.8061 27.7745L91.4919 30.5774L95.7517 30.3587Z" fill="white"/>
<path d="M50.9641 0L51.0957 3.3815L46.2303 3.34236L46.2961 5.25848L50.1759 5.08238L50.3076 8.32761L46.3408 8.42544L46.5594 12.3939L42.1977 12.6679L42.11 0.313063L50.9641 0Z" fill="white"/>
<path d="M63.0391 0.331909L63.6307 10.8684L61.943 12.1975L53.4391 12.4519L52.6282 11.7873L52.694 0.644972L56.5511 0.586273L56.7266 8.73778L59.3787 8.42542L59.2259 0.371741L63.0391 0.331909Z" fill="white"/>
<path d="M69.5473 8.9335L73.5799 8.83567L73.4702 12.5107L65.1857 12.3346L65.2734 10.8098C65.2734 10.8098 65.3831 0.859562 65.3831 0.390667L69.8537 0.214569L69.5473 8.9335Z" fill="white"/>
<path d="M79.1458 8.9335L83.1784 8.83567L83.0688 12.5107L74.7842 12.3346L74.8719 10.8098C74.8719 10.8098 74.9816 0.859562 74.9816 0.390667L79.4522 0.214569L79.1458 8.9335Z" fill="white"/>
<path d="M18.2417 30.1407L13.9467 28.4587L18.1367 26.1541L18.6954 19.5832L11.6072 19.1779L11.4325 24.5971L7.87077 26.9011L7.73522 19.3268V17.0019L1.1665 17.8264V19.3268V19.3338L1.44621 38.5494L8.39492 38.3321L8.15047 30.9814L11.9911 33.2867L12.3758 38.6745L19.7084 38.3006L18.2417 30.1407Z" fill="white"/>
<path d="M0 12.57V16.5777L6.56793 15.7531V12.57H0Z" fill="white"/>
<path d="M114.714 37.9987L114.013 24.4098L119.53 24.472L119.251 18.9284L102.874 19.2401L102.944 24.69L107.972 24.5349L107.902 38.4879L107.908 38.4872V40.4082L114.838 39.5528L114.714 37.9987Z" fill="white"/>
<path d="M114.024 45L113.791 40.847L106.751 41.7017V45H114.024Z" fill="white"/>
</svg>
