<svg width="21" height="21" viewBox="0 0 21 21" fill="none" xmlns="http://www.w3.org/2000/svg">
<path d="M16.3712 17.0625C15.645 18.1475 14.875 19.2062 13.7025 19.2237C12.53 19.25 12.1537 18.5325 10.8237 18.5325C9.48499 18.5325 9.07374 19.2062 7.96249 19.25C6.81624 19.2938 5.94999 18.095 5.21499 17.0362C3.71874 14.875 2.57249 10.8938 4.11249 8.21625C4.87374 6.88625 6.23874 6.04625 7.71749 6.02C8.83749 6.0025 9.90499 6.78125 10.5962 6.78125C11.2787 6.78125 12.5737 5.845 13.93 5.985C14.4987 6.01125 16.0912 6.2125 17.115 7.7175C17.0362 7.77 15.2162 8.8375 15.2337 11.0513C15.26 13.6938 17.5525 14.5775 17.5787 14.5863C17.5525 14.6475 17.2112 15.8462 16.3712 17.0625ZM11.375 3.0625C12.0137 2.33625 13.0725 1.785 13.9475 1.75C14.0612 2.77375 13.65 3.80625 13.0375 4.54125C12.4337 5.285 11.4362 5.8625 10.4562 5.78375C10.325 4.7775 10.815 3.7275 11.375 3.0625Z" fill="white"/>
</svg>
