<svg width="132" height="99" viewBox="0 0 132 99" fill="none" xmlns="http://www.w3.org/2000/svg">
<g clip-path="url(#clip0_4949_3427)">
<g clip-path="url(#clip1_4949_3427)">
<path d="M15.7154 82.9839H23.3827V89.4282C22.5395 90.1944 21.6358 90.7206 20.6698 91.0088C19.7038 91.297 18.6649 91.4402 17.5495 91.4402C16.1085 91.4402 14.817 91.152 13.6749 90.5774C12.5328 90.0028 11.5668 89.2367 10.7788 88.279C9.99068 87.3213 9.38583 86.2275 8.96422 84.996C8.5426 83.7644 8.33269 82.4917 8.33269 81.1795C8.33269 79.8656 8.49635 78.5929 8.8219 77.3631C9.14745 76.1315 9.65801 75.0449 10.3518 74.0998C11.0456 73.1564 11.9226 72.4046 12.9829 71.8425C14.0432 71.2822 15.2938 71.0011 16.7347 71.0011C18.0405 71.0011 19.2911 71.2482 20.4866 71.7404C21.6838 72.2327 22.865 73.2047 24.0356 74.6547L27.2573 71.7816C25.8982 70.1688 24.3682 68.896 22.6693 67.9652C20.9687 67.0343 18.9638 66.5689 16.6529 66.5689C14.4772 66.5689 12.588 66.9735 10.9833 67.779C9.37872 68.5863 8.05339 69.6675 7.00558 71.0208C5.95777 72.3759 5.18393 73.9279 4.68048 75.6786C4.17881 77.4311 3.92798 79.2498 3.92798 81.1383C3.92798 83 4.22684 84.8116 4.82635 86.5766C5.42409 88.3416 6.294 89.9079 7.43609 91.2756C8.57818 92.6432 9.99246 93.7459 11.6789 94.58C13.3654 95.4142 15.2955 95.8313 17.4712 95.8313C19.7821 95.8313 21.7407 95.3999 23.3453 94.5389C24.95 93.6761 26.3625 92.534 27.5882 91.1109L27.7927 90.6186V78.5517H15.7154V82.9839Z" fill="white"/>
<path d="M39.6194 66.9359L29.4224 95.6666H34.3181L37.2142 87.4162H46.1873L49.0835 95.6666H53.9774L43.7804 66.9359H39.6194ZM44.5951 83.0251H38.7619L41.699 74.8158C41.9978 75.6911 42.2629 76.4573 42.4942 77.1143C42.7254 77.7712 42.9496 78.4067 43.1666 79.0225C43.3837 79.6383 43.6078 80.2612 43.8391 80.8895C44.0703 81.5214 44.323 82.2321 44.5951 83.0251Z" fill="white"/>
<path d="M69.4755 82.0406L60.0524 66.9359H56.667V95.6666H60.949V76.3767L69.4755 89.9205L77.8776 76.1297V95.6666H82.2413V66.9359H78.8969L69.4755 82.0406Z" fill="white"/>
<path d="M90.3979 82.9839H102.431V78.5517H90.3979V71.3699H103.612V66.9359H85.9915V95.6666H103.735V91.2344H90.3979V82.9839Z" fill="white"/>
<path d="M124.394 81.5483C123.51 80.8645 122.572 80.3042 121.58 79.8656C120.587 79.427 119.696 79.0726 118.908 78.7987H118.949C118.241 78.5517 117.522 78.2796 116.787 77.9789C116.052 77.6781 115.373 77.3559 114.748 77.014C114.122 76.6721 113.613 76.289 113.219 75.8648C112.824 75.4405 112.628 74.9554 112.628 74.4077C112.628 73.5323 113.069 72.7858 113.953 72.1701C114.837 71.5543 116.067 71.2464 117.645 71.2464C118.869 71.2464 119.936 71.4522 120.847 71.8622C121.758 72.2721 122.594 72.9434 123.355 73.8742L124.049 74.8999L127.842 71.8622C127.054 70.9045 126.257 70.1043 125.456 69.4617C124.654 68.819 123.83 68.2981 122.989 67.9025C122.145 67.5069 121.275 67.2259 120.379 67.0612C119.48 66.8965 118.543 66.8141 117.565 66.8141C115.878 66.8141 114.437 67.0325 113.242 67.4711C112.044 67.9097 111.066 68.4914 110.305 69.2146C109.543 69.9396 108.985 70.781 108.632 71.7386C108.278 72.6963 108.102 73.6827 108.102 74.6941C108.102 75.9811 108.319 77.0605 108.755 77.9359C109.191 78.8112 109.76 79.5434 110.468 80.1323C111.174 80.7213 111.97 81.1992 112.854 81.5698C113.736 81.9385 114.642 82.2876 115.567 82.6152L116.545 82.9839C117.28 83.2309 118.041 83.4977 118.829 83.7841C119.617 84.0705 120.324 84.4142 120.95 84.8098C121.574 85.2072 122.092 85.6654 122.499 86.1846C122.907 86.7037 123.111 87.3069 123.111 87.9908C123.111 88.483 122.969 88.9341 122.683 89.3458C122.398 89.7558 122.003 90.112 121.5 90.4127C120.996 90.7135 120.398 90.9462 119.705 91.1109C119.011 91.2756 118.242 91.3579 117.401 91.3579C115.933 91.3579 114.579 91.0428 113.343 90.4145C112.105 89.7862 110.998 88.7873 110.018 87.4179L106.428 90.3734C108.141 92.2887 109.881 93.6832 111.649 94.5603C113.416 95.4357 115.319 95.8743 117.36 95.8743C118.801 95.8743 120.14 95.6899 121.379 95.3211C122.615 94.9524 123.697 94.4118 124.622 93.6993C125.547 92.9887 126.267 92.1061 126.783 91.0518C127.299 89.9992 127.559 88.7873 127.559 87.4197C127.559 86.1058 127.253 84.9709 126.641 84.0132C126.025 83.0537 125.276 82.2321 124.394 81.5483Z" fill="white"/>
<path d="M127.776 45.6787H102.404L124.503 13.5737H127.772L125.387 2.87259H124.962H119.37H95.952H93.0559H89.9374L92.3229 13.5719H92.7143V13.5737H111.216L87.5144 47.7427L89.4339 56.3816H125.387H125.39L127.776 45.6805V45.6787Z" fill="white"/>
<path d="M71.2101 45.659V13.5934H85.6606L83.2696 2.87259H54.5945H52.0346H48.5692H46.0093L48.3984 13.5916H50.5954V13.5934H60.5559V45.8344L58.1845 56.4729H60.5559H71.2101H73.665L71.2545 45.659H71.2101Z" fill="white"/>
<path d="M44.5719 33.0801C43.6077 30.9625 42.1863 29.1366 40.3095 27.6043C41.1723 26.3799 41.8821 24.9514 42.4407 23.3171C42.9975 21.6845 43.2768 20.1003 43.2768 18.5698C43.2768 16.4253 42.8712 14.3971 42.06 12.4817C41.247 10.5681 40.1316 8.90873 38.712 7.50531C37.2906 6.10189 35.6415 4.97772 33.7665 4.13638C31.8879 3.29326 29.8848 2.87259 27.7536 2.87259H10.0067H6.29578H3.92798L6.29222 13.477V45.8703L3.92798 56.4729H6.29578H29.5806C31.863 56.4729 33.9942 56.0397 35.9724 55.1715C37.9506 54.3051 39.6887 53.1308 41.1848 51.6486C42.6809 50.1682 43.8603 48.4319 44.7231 46.4413C45.5842 44.4507 46.0164 42.3062 46.0164 40.0095C46.0182 37.5088 45.5343 35.1996 44.5719 33.0801ZM27.8301 13.5934C29.1999 13.5934 30.3527 14.0534 31.292 14.9717C32.2295 15.89 32.6991 17.0661 32.6991 18.4946C32.6991 19.873 32.2295 21.0472 31.292 22.0175C30.3527 22.9877 29.1999 23.4728 27.8301 23.4728H16.9464V13.5934H27.8301ZM35.0225 41.8479C34.6916 42.6141 34.2611 43.2782 33.7292 43.8385C33.1972 44.4006 32.5746 44.8606 31.8648 45.2169C31.1532 45.5749 30.3936 45.7521 29.5824 45.7521H16.9464V34.19H29.5806C31.203 34.19 32.5977 34.6751 33.7665 35.6453C34.9335 36.6156 35.517 37.8919 35.517 39.4743C35.517 40.2924 35.3516 41.0818 35.0225 41.8479Z" fill="white"/>
</g>
</g>
<defs>
<clipPath id="clip0_4949_3427">
<rect width="132" height="99" fill="white"/>
</clipPath>
<clipPath id="clip1_4949_3427">
<rect width="123.912" height="92.9999" fill="white" transform="translate(3.92798 2.87259)"/>
</clipPath>
</defs>
</svg>
