<svg width="245" height="93" viewBox="0 0 245 93" fill="none" xmlns="http://www.w3.org/2000/svg">
<path d="M80.4817 70.6628L78.981 77.8641L57.9015 78.6292L45.3257 77.3565L46.3967 39.5641L77.1229 39.1179L80.4817 70.6628ZM66.907 67.4125L65.9787 50.396L58.0474 50.0142L57.6899 67.7314L66.907 67.4125Z" fill="white"/>
<path d="M98.4119 39.0522L107.273 54.2213L115.99 39.0522L127.637 39.4355L129.281 78.2475L115.919 79.074L114.991 58.3624L111.417 65.4994L103.701 66.0099L99.6993 58.5526L99.5566 78.8824L86.123 78.8194L86.9808 40.3263L98.4119 39.0522Z" fill="white"/>
<path d="M172.505 66.33V66.8376L164.216 78.9465L136.563 78.8836L135.778 40.2618L136.135 39.88L153.428 38.9233L163.575 39.0506L169.862 48.547V48.9288L164.503 58.1706L172.505 66.33ZM154.999 48.2939L148.639 48.2309V55.049L155.142 54.8588L154.999 48.2939ZM156.499 62.951H149.283V70.5984L156.642 70.2166L156.499 62.951Z" fill="white"/>
<path d="M210.514 78.7579L197.653 79.267L196.938 71.3636L186.72 72.1286L186.363 78.9481L174.074 78.7579L175.932 55.9429L184.864 39.4369L197.439 38.9907L207.8 54.0954L210.514 78.7579ZM195.937 62.1232L195.437 56.9625L191.578 49.6325L187.863 56.8352L187.22 62.5708L195.937 62.1232Z" fill="white"/>
<path d="M104.288 0L104.558 6.91958L94.6014 6.8395L94.7361 10.7605L102.675 10.4001L102.945 17.0408L94.8274 17.241L95.2748 25.3618L86.3495 25.9223L86.1699 0.640622L104.288 0Z" fill="white"/>
<path d="M128.997 0.679199L130.208 22.2401L126.754 24.9599L109.353 25.4804L107.693 24.1205L107.828 1.31982L115.721 1.1997L116.08 17.8802L121.507 17.241L121.194 0.760707L128.997 0.679199Z" fill="white"/>
<path d="M142.315 18.2806L150.567 18.0804L150.343 25.6005L133.39 25.2402L133.569 22.12C133.569 22.12 133.794 1.75882 133.794 0.799315L142.942 0.438965L142.315 18.2806Z" fill="white"/>
<path d="M161.957 18.2806L170.208 18.0804L169.984 25.6005L153.031 25.2402L153.211 22.12C153.211 22.12 153.435 1.75882 153.435 0.799315L162.583 0.438965L161.957 18.2806Z" fill="white"/>
<path d="M37.3281 61.6771L28.5391 58.2352L37.1133 53.5192L38.2564 40.0733L23.7518 39.2439L23.3943 50.3333L16.1059 55.0478L15.8286 39.5485V34.791L2.38696 36.4784V39.5485V39.5628L2.95932 78.8839L17.1785 78.4391L16.6783 63.3974L24.5374 68.1148L25.3246 79.1398L40.3294 78.3748L37.3281 61.6771Z" fill="white"/>
<path d="M0 25.7222V33.923L13.44 32.2356V25.7222H0Z" fill="white"/>
<path d="M234.739 77.757L233.306 49.95L244.595 50.0773L244.024 38.7334L210.511 39.3712L210.656 50.5234L220.944 50.206L220.801 78.758L220.812 78.7566V82.6875L234.994 80.9372L234.739 77.757Z" fill="white"/>
<path d="M233.329 92.0837L232.851 83.5854L218.446 85.3343V92.0837H233.329Z" fill="white"/>
</svg>
